<svg xmlns="http://www.w3.org/2000/svg" width="102" height="42" fill="none">
  <path fill="#fff" fill-rule="evenodd" d="M15.925 27.122c.49-2.105.98-4.206 1.433-6.287l-6.187.002-.747 3.012 2.154.01-.823 3.591v.001c-.587 2.556-1.173 5.112-1.753 7.674h4.122c.557-2.657 1.18-5.334 1.801-8.003Zm-.395-7.895c1.433 0 2.598-.607 2.598-2.076 0-1.146-1.163-2.073-2.598-2.073-1.435 0-2.6.927-2.6 2.073s1.165 2.076 2.6 2.076Zm48.149 1.537s-1.085 3.127-1.116 3.23a6.444 6.444 0 0 1-.92-.364c-.594-.273-1.141-.525-2.172-.42-3.899.391-4.815 5.412-5.553 9.457l-.004.025-.382 2.432h-4.037c.363-1.55.73-3.139 1.099-4.74v-.001a714.538 714.538 0 0 1 2.264-9.62l1.998.002h.005l1.99.001-.213 1.133c1.646-1.108 4.43-1.79 7.04-1.135Zm-16.834 10.22c-2.229 1.775-9.121 2.47-8.416-2.184 3.955.922 9.404.318 11.422-2.184.688-.853 1.138-2.509.602-3.756-.886-2.056-4.171-2.572-7.042-2.358-5.01.375-9.842 3.495-9.19 9.433.541 4.931 6.693 6.116 12.11 4.455.108-.514.174-1.071.24-1.628.074-.612.147-1.223.275-1.778Zm-4.379-4.456c1.706-.117 4.77-.706 4.208-2.358-.343-1.013-2.32-1.177-3.52-.96-1.866.338-3.221 1.745-3.951 3.056.885.242 2.063.345 3.263.262ZM32.92 28.26l3.144-12.977h-3.969c-.206 1.055-.498 2.066-.79 3.077-.285.991-.572 1.983-.776 3.014-6.722-2.777-14.395 1.728-13.656 8.997.35 3.448 3.658 5.016 7.471 4.718 0 0 6.65-.138 8.576-6.83Zm-10.894-2.43c-.799 1.245-1.378 3.657-.517 5.24.9 1.657 4.013 1.677 5.497.524 1.29-1 1.892-3.57 2.392-5.705.122-.522.238-1.017.357-1.458-2.54-2.265-6.31-.819-7.73 1.399Zm-16.82 2.372C6.612 22.444 8.67 15.297 8.67 15.297H4.317l-2.354 8.521S.13 30.862.076 31.344l-.016.126c-.08.643-.22 1.779.659 2.733.943 1.022 3.001.916 3.001.916h4.26l.945-3.594H5.049s-.683-.034-.424-1.076l.582-2.247Z" clip-rule="evenodd"/>
  <path fill="#FDBB30" fill-rule="evenodd" d="M83.21 29.908c.78 0 1.419.4 1.505.918l.771 8.64c0 .856-1.009 1.555-2.275 1.555-1.265 0-2.274-.699-2.274-1.555l.771-8.64c.085-.518.724-.917 1.502-.918Zm16.075 4.006a.685.685 0 0 1-.327-.083l-.053.2a.807.807 0 0 0 .366.086c.347 0 .511-.187.511-.401 0-.196-.115-.313-.349-.4-.18-.07-.26-.116-.26-.22 0-.08.07-.163.225-.163.127 0 .224.04.269.064l.062-.197a.732.732 0 0 0-.327-.066c-.29 0-.477.168-.477.386 0 .192.144.31.366.389.174.061.24.12.24.222 0 .113-.089.183-.246.183Zm1.863-.377.001.012.026.547h.238l-.078-1.34h-.32l-.186.537a6.926 6.926 0 0 0-.134.468h-.006a6.719 6.719 0 0 0-.125-.468l-.178-.536h-.324l-.091 1.339h.233l.029-.538.006-.12c.008-.153.016-.315.021-.454.038.17.086.35.138.523l.18.573h.188l.2-.58c.058-.167.116-.35.158-.516h.007c-.002.18.008.383.017.553ZM78.504 27.21c.39.668.362 1.42-.052 1.758L71.3 33.943c-.742.428-1.858-.09-2.491-1.176-.634-1.09-.522-2.305.22-2.735l7.92-3.655c.496-.185 1.171.163 1.56.834l-.004-.002Zm10.968-.83c-.495-.188-1.166.16-1.557.831l.004-.002c-.389.668-.36 1.42.051 1.758l7.154 4.978c.74.424 1.857-.092 2.493-1.175.629-1.092.524-2.305-.222-2.736l-7.923-3.655Zm0-3.731c-.495.183-1.166-.168-1.557-.836l.004.004c-.389-.668-.36-1.422.051-1.755l7.154-4.981c.74-.428 1.857.088 2.493 1.178.629 1.085.524 2.303-.222 2.728l-7.923 3.662Zm-10.968-.832c.39-.67.362-1.422-.052-1.755L71.3 15.082c-.742-.43-1.858.086-2.491 1.174-.634 1.09-.522 2.305.22 2.73l7.92 3.662c.496.183 1.171-.168 1.558-.836l-.002.004Zm6.211-3.62c-.087.52-.727.922-1.507.922h.003c-.778 0-1.418-.402-1.503-.922l-.77-8.638c0-.854 1.008-1.556 2.273-1.556 1.266 0 2.275.702 2.275 1.556l-.77 8.638Z" clip-rule="evenodd"/>
  <path fill="#fff" d="M6.76 11.102c-1.26 0-1.91-.53-2.2-.78-.1-.08-.14-.14-.05-.3l.36-.62c.08-.14.25-.14.34-.07.41.31.86.62 1.51.62.52 0 .91-.34.91-.77 0-.51-.43-.86-1.27-1.2-.94-.38-1.88-.98-1.88-2.16 0-.89.66-1.92 2.25-1.92 1.02 0 1.8.52 2 .67.1.06.13.23.06.33l-.38.57c-.08.12-.23.2-.35.12-.43-.27-.84-.55-1.39-.55-.57 0-.88.32-.88.7 0 .47.37.79 1.18 1.12.97.39 2.09.97 2.09 2.26 0 1.03-.89 1.98-2.3 1.98Zm2.982-2.05v-2.45c0-.13.1-.22.22-.22h.81c.12 0 .22.09.22.22v2.45c0 .61.21.92.78.92.51 0 .75-.46.82-.86v-2.51c0-.18.06-.22.25-.22h.78c.12 0 .22.09.22.22v4.23c0 .11-.08.21-.24.21-.42 0-.65-.24-.72-.57-.25.25-.72.64-1.4.64-1.43 0-1.74-.89-1.74-2.06Zm9.832-.35c0 1.35-.91 2.41-2.29 2.41-.46 0-.9-.11-1.11-.19v2.24c0 .11-.11.22-.22.22h-.81c-.12 0-.22-.11-.22-.22v-6.61c0-.11.08-.21.24-.21.42 0 .65.25.72.59a2 2 0 0 1 1.48-.65c1.26 0 2.21 1.02 2.21 2.42Zm-3.4-.64v1.65s.38.26.96.26c.76 0 1.15-.62 1.15-1.27s-.37-1.28-1.09-1.28c-.6 0-.92.38-1.02.64Zm3.934.63c0-1.3.96-2.41 2.33-2.41 1.2 0 2.12.89 2.12 2.14 0 .07-.01.23-.02.3-.01.12-.12.21-.22.21h-2.96c.01.57.48 1.07 1.15 1.07.46 0 .78-.17.99-.34.11-.09.23-.1.3 0l.39.52c.08.09.09.2-.02.3-.4.34-.97.63-1.72.63-1.38 0-2.34-1.1-2.34-2.42Zm1.32-.58h1.87c-.02-.45-.38-.8-.89-.8-.56 0-.92.34-.98.8Zm3.867 2.67v-4.23c0-.11.08-.21.24-.21.43 0 .67.28.73.63.17-.23.59-.69 1.29-.69.55 0 1 .15.87.45l-.3.68c-.05.11-.16.15-.27.1a.92.92 0 0 0-.43-.09c-.5 0-.8.32-.88.48v2.88c0 .17-.11.22-.26.22h-.77c-.11 0-.22-.1-.22-.22Zm3.667 0v-4.23c0-.11.08-.21.24-.21.41 0 .65.25.72.58.2-.23.61-.64 1.39-.64.67 0 1 .24 1.38.7.2-.21.66-.7 1.49-.7 1.48 0 1.83.94 1.83 2.14v2.36c0 .12-.1.22-.23.22h-.8c-.12 0-.22-.1-.22-.22v-2.39c0-.6-.22-.97-.8-.97-.67 0-.86.48-.86.48s.02.23.02.44v2.44c0 .12-.11.22-.22.22h-.82c-.13 0-.22-.1-.22-.22v-2.39c0-.6-.17-.97-.76-.97-.57 0-.78.4-.89.72v2.64c0 .12-.11.22-.22.22h-.81c-.11 0-.22-.1-.22-.22Zm7.802-2.09c0-1.3.96-2.41 2.33-2.41 1.2 0 2.12.89 2.12 2.14 0 .07-.01.23-.02.3-.01.12-.12.21-.22.21h-2.96c.01.57.48 1.07 1.15 1.07.46 0 .78-.17.99-.34.11-.09.23-.1.3 0l.39.52c.08.09.09.2-.02.3-.4.34-.97.63-1.72.63-1.38 0-2.34-1.1-2.34-2.42Zm1.32-.58h1.87c-.02-.45-.38-.8-.89-.8-.56 0-.92.34-.98.8Zm3.867 2.67v-4.23c0-.11.08-.21.24-.21.43 0 .67.28.73.63.17-.23.59-.69 1.29-.69.55 0 1 .15.87.45l-.3.68c-.05.11-.16.15-.27.1a.92.92 0 0 0-.43-.09c-.5 0-.8.32-.88.48v2.88c0 .17-.11.22-.26.22h-.77c-.11 0-.22-.1-.22-.22Zm3.27-2.09c0-1.36 1.08-2.41 2.45-2.41.72 0 1.28.31 1.72.78.1.1.05.23-.05.33l-.42.46c-.1.11-.21.06-.3-.03-.22-.21-.49-.4-.92-.4-.72 0-1.22.56-1.22 1.27 0 .72.49 1.28 1.21 1.28.51 0 .78-.28.98-.51.07-.08.21-.1.29-.03l.45.38c.11.1.16.21.08.33-.39.61-1.01.97-1.83.97-1.35 0-2.44-1.03-2.44-2.42Zm4.643.84c0-.82.67-1.45 1.84-1.45.47 0 .89.13.89.13.02-.59-.38-.87-.87-.87-.41 0-.8.09-1.07.17-.15.05-.24-.06-.26-.2l-.1-.52c-.04-.17.05-.25.15-.28.1-.04.72-.23 1.35-.23 1.34 0 1.97.75 1.97 2.01v2.54c0 .11-.08.21-.24.21-.37 0-.6-.2-.69-.47-.28.25-.73.54-1.41.54-.92 0-1.56-.59-1.56-1.58Zm1.2 0c0 .39.24.65.67.65.41 0 .77-.32.83-.49v-.68s-.31-.14-.68-.14c-.53 0-.82.25-.82.66Zm3.464-.84c0-1.35.91-2.41 2.29-2.41.46 0 .9.11 1.11.19v-2.25c0-.11.11-.22.22-.22h.81c.12 0 .22.11.22.22v6.61c0 .11-.08.21-.24.21-.42 0-.66-.25-.72-.58-.27.29-.75.65-1.48.65-1.26 0-2.21-1.02-2.21-2.42Zm3.4.64v-1.65s-.38-.26-.96-.26c-.76 0-1.15.62-1.15 1.27s.37 1.28 1.09 1.28c.6 0 .92-.38 1.02-.64Zm2.054-.65c0-1.3 1.06-2.4 2.36-2.4 1.31 0 2.37 1.1 2.37 2.4 0 1.32-1.06 2.43-2.37 2.43-1.3 0-2.36-1.11-2.36-2.43Zm1.16 0c0 .71.53 1.29 1.2 1.29.67 0 1.21-.58 1.21-1.29 0-.7-.54-1.26-1.21-1.26-.67 0-1.2.56-1.2 1.26Z"/>
</svg>